<?xml version="1.0" standalone="no"?>
<!DOCTYPE svg PUBLIC "-//W3C//DTD SVG 20010904//EN"
 "http://www.w3.org/TR/2001/REC-SVG-20010904/DTD/svg10.dtd">
<svg version="1.0" xmlns="http://www.w3.org/2000/svg"
 width="400.000000pt" height="400.000000pt" viewBox="0 0 400.000000 400.000000"
 preserveAspectRatio="xMidYMid meet">
<metadata>
Created by potrace 1.11, written by Peter Selinger 2001-2013
</metadata>
<g transform="translate(0.000000,400.000000) scale(0.100000,-0.100000)"
fill="#000000" stroke="none">
<path d="M1365 3983 c-2 -7 0 -13 5 -13 6 0 10 -7 10 -15 0 -9 7 -18 15 -21 8
-4 15 -13 15 -21 0 -8 4 -12 9 -9 11 7 35 -20 27 -32 -2 -4 -20 -7 -38 -6 -18
1 -37 -1 -43 -5 -5 -4 -22 -7 -37 -6 -16 1 -28 -1 -28 -4 0 -4 -11 -8 -24 -9
-13 -1 -44 -10 -70 -21 -25 -11 -46 -17 -46 -13 0 4 -7 -2 -15 -12 -8 -11 -15
-16 -15 -11 0 4 -10 0 -22 -11 -12 -10 -18 -13 -13 -5 5 9 -2 7 -18 -5 -15
-10 -27 -22 -27 -26 0 -5 -7 -8 -15 -8 -7 0 -18 -6 -22 -13 -4 -6 -20 -18 -35
-26 -16 -8 -26 -16 -24 -19 6 -5 -32 -42 -44 -42 -5 0 -10 -6 -10 -14 0 -8 -7
-17 -16 -20 -9 -4 -14 -9 -11 -12 2 -3 -6 -16 -19 -29 -13 -13 -24 -31 -24
-40 0 -8 -4 -15 -9 -15 -7 0 -18 -24 -18 -40 0 -3 -5 -15 -12 -27 -11 -22 -11
-22 14 -11 14 6 25 15 25 20 0 5 4 7 9 3 5 -3 16 2 24 10 9 8 26 17 39 19 13
3 25 5 28 6 3 2 8 2 13 1 4 0 7 4 7 10 0 5 5 7 10 4 6 -3 10 -1 10 6 0 8 4 8
16 -2 14 -11 14 -13 -1 -21 -8 -5 -12 -14 -9 -20 4 -7 2 -8 -4 -4 -7 4 -12 3
-12 -2 0 -5 -29 -39 -64 -75 -36 -35 -62 -68 -58 -73 4 -4 1 -4 -5 0 -7 4 -21
2 -30 -3 -10 -6 -15 -11 -10 -11 9 0 -30 -40 -41 -40 -4 0 -27 -18 -51 -40
-24 -22 -46 -38 -50 -35 -4 2 -15 -7 -25 -21 -11 -13 -23 -24 -29 -24 -6 0
-26 -12 -46 -27 -20 -16 -39 -27 -43 -25 -5 1 -8 -3 -8 -9 0 -5 -6 -7 -12 -3
-10 5 -10 4 0 -7 13 -14 62 -21 62 -8 0 4 10 6 21 4 25 -5 38 -15 20 -15 -7 0
-10 -4 -6 -9 3 -5 -1 -15 -8 -23 -14 -14 -16 -17 -24 -48 -3 -11 -9 -20 -13
-20 -8 0 -34 -78 -33 -102 0 -10 -3 -18 -8 -18 -9 0 -9 -5 -10 -115 -1 -113 4
-162 18 -176 9 -9 12 -8 12 7 0 19 3 37 14 64 3 8 10 29 15 45 9 33 29 33 24
0 -1 -11 -4 -38 -7 -60 -9 -66 -11 -175 -5 -175 4 0 7 -15 7 -32 0 -18 4 -55
8 -83 4 -27 8 -58 8 -67 1 -10 4 -18 7 -18 4 0 7 -6 8 -12 2 -29 12 -59 40
-115 33 -68 43 -102 47 -160 2 -23 6 -46 9 -51 3 -5 8 -27 12 -48 3 -22 9 -41
14 -44 4 -3 10 -15 14 -27 4 -13 12 -23 18 -23 5 0 8 -6 5 -13 -5 -14 17 -39
27 -30 3 4 6 -2 6 -12 0 -10 9 -26 21 -36 11 -9 21 -21 21 -26 1 -4 12 -25 24
-45 13 -21 24 -44 24 -51 0 -8 3 -17 7 -21 5 -4 8 -11 9 -14 4 -34 51 -95 65
-86 5 3 9 1 9 -5 0 -6 15 -10 33 -9 59 1 75 -12 90 -74 4 -15 13 -33 20 -40 7
-7 19 -28 26 -45 7 -18 17 -30 22 -27 5 3 9 -2 9 -10 0 -9 5 -16 10 -16 6 0
10 -9 10 -20 0 -11 7 -20 16 -20 8 0 12 -4 9 -10 -3 -5 -1 -10 4 -10 6 0 11
-7 11 -15 0 -8 5 -15 10 -15 6 0 10 -7 10 -15 0 -8 7 -15 15 -15 8 0 15 -7 15
-15 0 -9 7 -18 15 -21 8 -4 13 -9 10 -14 -2 -4 6 -17 18 -28 42 -41 57 -59 57
-70 0 -7 7 -12 15 -12 8 0 15 -4 15 -8 0 -4 20 -29 45 -55 35 -36 45 -52 41
-71 -2 -14 1 -27 7 -30 9 -3 9 -5 0 -5 -8 -1 -9 -11 -1 -37 5 -20 7 -66 4
-103 -6 -85 -8 -91 -18 -85 -4 3 -8 0 -8 -5 0 -6 -4 -11 -9 -11 -5 0 -25 -15
-44 -33 -18 -17 -43 -38 -55 -46 -11 -8 -18 -19 -15 -24 3 -6 1 -7 -5 -3 -6 3
-21 -4 -34 -17 -13 -12 -31 -21 -40 -19 -10 2 -18 -2 -18 -8 0 -6 -4 -9 -9 -5
-5 3 -12 1 -16 -5 -4 -6 -10 -8 -15 -5 -5 3 -16 -2 -24 -11 -9 -8 -16 -12 -16
-9 0 4 -11 0 -25 -9 -14 -9 -25 -14 -25 -10 0 3 -11 -1 -25 -10 -14 -9 -25
-14 -25 -10 0 4 -7 1 -15 -6 -8 -7 -15 -9 -15 -5 0 4 -6 3 -12 -2 -7 -6 -21
-9 -30 -8 -10 2 -18 0 -18 -5 0 -4 -12 -8 -27 -9 -64 -2 -115 -13 -125 -26 -5
-6 -8 -5 -8 3 0 7 -5 10 -10 7 -10 -6 -22 -9 -92 -19 -21 -3 -57 -10 -80 -15
-23 -6 -46 -8 -50 -5 -4 3 -8 0 -8 -5 0 -6 -3 -10 -8 -9 -15 3 -82 -14 -82
-22 0 -4 -11 -6 -25 -5 -14 2 -25 0 -25 -5 0 -8 -46 -23 -54 -18 -2 2 -13 -6
-25 -16 -12 -11 -21 -16 -21 -12 0 8 -67 -31 -88 -51 -8 -7 -18 -10 -24 -7 -7
4 -8 2 -4 -4 9 -16 3546 -17 3546 -2 0 6 -6 10 -13 10 -7 0 -19 9 -27 19 -7
11 -17 18 -22 15 -4 -3 -11 2 -14 10 -3 9 -10 13 -15 10 -5 -3 -9 -1 -9 3 0 9
-69 39 -82 35 -5 -1 -8 2 -8 6 0 11 -68 34 -80 27 -5 -3 -10 -1 -10 4 0 6 -3
10 -7 10 -5 -1 -11 0 -15 1 -5 1 -12 4 -18 5 -5 1 -11 3 -12 5 -5 3 -82 17
-138 25 -14 1 -45 6 -70 10 -25 4 -56 9 -70 10 -14 2 -45 6 -70 10 -25 3 -56
8 -70 10 -14 1 -25 4 -25 5 0 1 -7 3 -15 5 -36 7 -45 10 -50 16 -8 10 -152 76
-193 89 -21 7 -49 23 -62 36 -13 13 -29 24 -34 24 -6 0 -16 9 -23 20 -7 11
-16 20 -20 20 -4 0 -23 15 -42 34 l-35 33 4 94 c2 52 4 111 4 132 0 26 7 45
20 56 12 10 18 21 15 24 -3 3 3 8 13 11 10 3 27 19 36 36 10 16 23 30 28 30 6
0 7 5 4 10 -3 6 1 10 9 10 8 0 17 9 21 20 3 11 9 19 13 17 4 -1 8 2 9 7 1 5 5
12 10 15 5 3 20 22 33 41 14 19 36 45 49 58 13 12 20 22 15 22 -5 0 0 7 10 15
11 8 16 15 12 15 -5 0 8 20 28 45 21 25 35 45 31 45 -3 0 3 10 14 22 11 11 18
24 16 28 -2 4 5 17 16 28 11 12 16 22 12 22 -4 0 -2 5 5 12 7 7 12 21 12 31 0
13 5 17 15 14 8 -4 17 -2 19 2 3 5 18 7 33 5 15 -1 33 2 40 8 7 6 13 7 13 2 0
-10 31 46 33 61 1 5 8 16 15 23 7 8 10 18 7 23 -4 5 -1 9 4 9 6 0 11 7 11 15
0 8 9 24 19 34 14 14 16 22 8 31 -9 10 -9 11 2 5 11 -6 13 -4 8 9 -6 14 -3 17
8 12 9 -3 13 -2 10 4 -3 6 -1 10 4 10 6 0 11 5 11 10 0 6 9 20 20 32 11 12 20
28 20 35 0 7 4 13 8 13 9 0 38 70 34 82 -1 4 3 8 9 8 5 0 7 5 4 10 -3 6 -1 10
5 10 6 0 10 8 9 18 -1 9 0 20 1 25 6 17 8 28 9 51 0 14 8 32 17 40 8 9 12 16
7 16 -4 0 -3 4 2 8 13 9 47 116 51 162 2 19 7 51 10 70 9 47 9 134 1 147 -4 6
-6 22 -5 36 2 23 5 24 28 15 19 -8 220 -19 220 -13 0 8 -40 45 -49 45 -6 0
-11 5 -11 10 0 6 -5 10 -10 10 -14 0 -66 52 -62 62 1 4 -2 8 -7 8 -13 0 -90
77 -84 84 3 3 -2 8 -11 12 -9 3 -16 12 -16 20 0 8 -5 14 -11 14 -5 0 -7 5 -4
10 3 6 1 10 -4 10 -6 0 -11 9 -11 20 0 11 -5 20 -11 20 -5 0 -7 5 -4 10 3 6 1
10 -4 10 -6 0 -11 8 -11 18 0 10 -3 22 -7 26 -5 4 -9 12 -9 17 -1 5 -2 10 -4
12 -1 1 -3 11 -5 22 -2 11 -7 31 -11 44 -5 17 -3 22 5 20 7 -3 12 -8 11 -13
-1 -5 2 -12 7 -15 5 -3 17 -17 27 -31 l17 -25 -4 35 c-2 19 0 43 4 52 5 10 5
19 0 23 -6 3 -8 15 -5 28 2 12 -1 51 -8 87 -7 36 -11 68 -10 73 1 4 -3 7 -9 7
-5 0 -7 5 -4 10 4 6 2 16 -3 23 -6 7 -11 17 -11 22 -2 25 -23 75 -31 75 -5 0
-7 7 -4 15 4 10 0 15 -11 15 -9 0 -14 4 -11 9 3 5 -1 14 -9 21 -8 7 -15 19
-15 28 0 8 -3 13 -6 10 -3 -4 -18 7 -33 23 -16 16 -33 29 -40 29 -22 0 -10 20
17 26 30 8 72 33 72 43 0 4 -28 13 -62 20 -35 8 -72 19 -83 25 -11 5 -23 9
-27 8 -4 -1 -20 3 -35 10 -32 13 -52 19 -70 20 -7 1 -13 5 -13 10 0 5 -4 6
-10 3 -5 -3 -10 -2 -10 3 0 5 -12 15 -27 23 -29 14 -38 23 -74 72 l-21 27 39
-3 c21 -1 44 -6 51 -10 8 -6 12 -2 12 12 0 11 -8 25 -17 30 -10 6 -14 11 -10
11 12 0 -35 45 -56 53 -9 3 -17 11 -17 17 0 6 -4 8 -10 5 -5 -3 -10 -2 -10 3
0 10 -73 44 -139 65 -47 15 -253 17 -301 3 -74 -22 -73 -22 -57 17 9 19 13 38
9 41 -3 3 0 6 7 6 7 0 9 5 6 10 -3 6 -1 10 6 10 10 0 10 3 1 12 -13 13 -52 19
-52 7 0 -7 -60 -33 -72 -30 -5 0 -8 -4 -8 -10 0 -5 -3 -8 -8 -6 -4 3 -24 -3
-44 -13 -20 -9 -48 -20 -62 -24 -14 -3 -26 -11 -26 -17 0 -6 -4 -7 -10 -4 -5
3 -10 2 -10 -3 0 -6 -8 -8 -19 -5 -10 3 -21 1 -24 -4 -4 -7 -43 -7 -189 0 -15
1 -24 5 -21 11 3 5 -5 7 -21 4 -14 -3 -26 -2 -26 1 0 7 -31 12 -82 15 -16 0
-28 5 -28 9 0 5 -4 5 -10 2 -5 -3 -10 -1 -10 6 0 7 -3 10 -6 7 -3 -3 -32 2
-64 12 -32 10 -61 15 -64 12 -3 -3 -6 0 -6 7 0 7 -4 10 -9 6 -5 -3 -12 -1 -16
5 -3 5 -15 10 -26 10 -10 0 -19 4 -19 9 0 14 -59 8 -65 -6z"/>
</g>
</svg>
